<?xml version="1.0" encoding="utf-8"?>
<!-- Generator: Adobe Illustrator 24.3.0, SVG Export Plug-In . SVG Version: 6.00 Build 0)  -->
<svg version="1.1" id="Layer_1" xmlns="http://www.w3.org/2000/svg" xmlns:xlink="http://www.w3.org/1999/xlink" x="0px" y="0px"
	 viewBox="0 0 841.89 595.28" style="enable-background:new 0 0 841.89 595.28;" xml:space="preserve">
<style type="text/css">
	.st0{fill:#27A737;}
</style>
<path class="st0" d="M512.84,260.63c0,30.52-25.79,37.01-55.26,55.26l-208.4,105.2l-0.01,0.01l-10.54,5.32
	c-30.52,0-55.26-24.74-55.26-55.26c0-30.52,24.74-55.27,55.26-55.27c0,0,51.58,1.58,55.26-55.26c0,0,1.58-52.63-55.26-55.26
	c-30.52,0-55.26-24.74-55.26-55.26c0-30.53,24.74-55.27,55.26-55.27l10.54,5.32l0.01,0.01l208.4,105.2
	C487.05,216.42,512.84,230.11,512.84,260.63z"/>
<path class="st0" d="M249.17,100.16l-10.54-4.32C243.9,98.5,243.9,97.5,249.17,100.16z"/>
<path class="st0" d="M249.17,421.1c-4.73,2.66-6.6,3.33-10.54,5.32L249.17,421.1z"/>
</svg>
